# xmcd
#
# Track frame offsets: 
#        182
#        21317
#        52840
#        74415
#        106482
#        126892
#        151085
#        172365
#        195760
#        228162
#
# Disc length: 3397 seconds
#
# Revision: 4
# Processed by: cddbd v1.5.2PL0 Copyright (c) Steve Scherf et al.
# Submitted via: ExactAudioCopy v1.1
#
DISCID=7d0d430a
DTITLE=Buddy Guy - D.J. Play My Blues
DYEAR=1981
DGENRE=Blues
TTITLE0=Girl You're Nice and Clean
TTITLE1=Dedication To The Late T Bone Walker
TTITLE2=Good News
TTITLE3=Blues At My Baby's House
TTITLE4=She Suits Me To A T
TTITLE5=D.J. Play My Blues
TTITLE6=Just Teasing'
TTITLE7=All Your Love
TTITLE8=The Garbage Man Blues
TTITLE9=Mellow Down
EXTD=
EXTT0=
EXTT1=
EXTT2=
EXTT3=
EXTT4=
EXTT5=
EXTT6=
EXTT7=
EXTT8=
EXTT9=
PLAYORDER=
